<svg viewBox="0 0 300 200" xmlns="http://www.w3.org/2000/svg">
  <!-- Left wing - multiple nested spiral curves -->
  <g stroke="#0201ff" fill="none" stroke-width="1.5" opacity="0.9">
    <!-- Outer spirals -->
    <path d="M20 30 Q10 50 30 80 Q60 100 90 80 Q100 50 80 40 Q60 35 50 45 Q45 55 52 60 Q60 58 58 52"/>
    <path d="M25 35 Q15 55 35 85 Q65 105 95 85 Q105 55 85 45 Q65 40 55 50 Q50 60 57 65 Q65 63 63 57"/>
    <path d="M30 40 Q20 60 40 90 Q70 110 100 90 Q110 60 90 50 Q70 45 60 55 Q55 65 62 70 Q70 68 68 62"/>
    <path d="M35 45 Q25 65 45 95 Q75 115 105 95 Q115 65 95 55 Q75 50 65 60 Q60 70 67 75 Q75 73 73 67"/>
    <path d="M40 50 Q30 70 50 100 Q80 120 110 100 Q120 70 100 60 Q80 55 70 65 Q65 75 72 80 Q80 78 78 72"/>
    
    <!-- Inner spirals -->
    <path d="M45 55 Q35 75 55 105 Q85 125 115 105 Q125 75 105 65 Q85 60 75 70 Q70 80 77 85 Q85 83 83 77"/>
    <path d="M50 60 Q40 80 60 110 Q90 130 120 110 Q130 80 110 70 Q90 65 80 75 Q75 85 82 90 Q90 88 88 82"/>
    <path d="M55 65 Q45 85 65 115 Q95 135 125 115 Q135 85 115 75 Q95 70 85 80 Q80 90 87 95 Q95 93 93 87"/>
    
    <!-- Very inner spirals -->
    <path d="M60 70 Q50 90 70 120 Q100 140 130 120 Q140 90 120 80 Q100 75 90 85 Q85 95 92 100 Q100 98 98 92"/>
    <path d="M65 75 Q55 95 75 125 Q105 145 135 125 Q145 95 125 85 Q105 80 95 90 Q90 100 97 105 Q105 103 103 97"/>
    <path d="M70 80 Q60 100 80 130 Q110 150 140 130 Q150 100 130 90 Q110 85 100 95 Q95 105 102 110 Q110 108 108 102"/>
  </g>
  
  <!-- Right wing - mirrored spirals -->
  <g stroke="#0201ff" fill="none" stroke-width="1.5" opacity="0.9">
    <!-- Outer spirals -->
    <path d="M280 30 Q290 50 270 80 Q240 100 210 80 Q200 50 220 40 Q240 35 250 45 Q255 55 248 60 Q240 58 242 52"/>
    <path d="M275 35 Q285 55 265 85 Q235 105 205 85 Q195 55 215 45 Q235 40 245 50 Q250 60 243 65 Q235 63 237 57"/>
    <path d="M270 40 Q280 60 260 90 Q230 110 200 90 Q190 60 210 50 Q230 45 240 55 Q245 65 238 70 Q230 68 232 62"/>
    <path d="M265 45 Q275 65 255 95 Q225 115 195 95 Q185 65 205 55 Q225 50 235 60 Q240 70 233 75 Q225 73 227 67"/>
    <path d="M260 50 Q270 70 250 100 Q220 120 190 100 Q180 70 200 60 Q220 55 230 65 Q235 75 228 80 Q220 78 222 72"/>
    
    <!-- Inner spirals -->
    <path d="M255 55 Q265 75 245 105 Q215 125 185 105 Q175 75 195 65 Q215 60 225 70 Q230 80 223 85 Q215 83 217 77"/>
    <path d="M250 60 Q260 80 240 110 Q210 130 180 110 Q170 80 190 70 Q210 65 220 75 Q225 85 218 90 Q210 88 212 82"/>
    <path d="M245 65 Q255 85 235 115 Q205 135 175 115 Q165 85 185 75 Q205 70 215 80 Q220 90 213 95 Q205 93 207 87"/>
    
    <!-- Very inner spirals -->
    <path d="M240 70 Q250 90 230 120 Q200 140 170 120 Q160 90 180 80 Q200 75 210 85 Q215 95 208 100 Q200 98 202 92"/>
    <path d="M235 75 Q245 95 225 125 Q195 145 165 125 Q155 95 175 85 Q195 80 205 90 Q210 100 203 105 Q195 103 197 97"/>
    <path d="M230 80 Q240 100 220 130 Q190 150 160 130 Q150 100 170 90 Q190 85 200 95 Q205 105 198 110 Q190 108 192 102"/>
  </g>
  
  <!-- Center connection - small vertical line -->
  <line x1="150" y1="90" x2="150" y2="110" stroke="#0201ff" stroke-width="3" opacity="0.8"/>
  <circle cx="150" cy="100" r="2" fill="#0201ff" opacity="0.9"/>
</svg>